<svg xmlns="http://www.w3.org/2000/svg" xmlns:xlink="http://www.w3.org/1999/xlink" version="1.1" width="256" height="256" viewBox="0 0 256 256" xml:space="preserve">

<defs>
</defs>
<g style="stroke: none; stroke-width: 0; stroke-dasharray: none; stroke-linecap: butt; stroke-linejoin: miter; stroke-miterlimit: 10; fill: none; fill-rule: nonzero; opacity: 1;" transform="translate(1.4065934065934016 1.4065934065934016) scale(2.81 2.81)" >
	<path d="M 45 0 C 20.147 0 0 20.147 0 45 s 20.147 45 45 45 s 45 -20.147 45 -45 S 69.853 0 45 0 z M 45 79.807 c -19.223 0 -34.807 -15.584 -34.807 -34.807 c 0 -19.223 15.583 -34.807 34.807 -34.807 S 79.807 25.777 79.807 45 C 79.807 64.223 64.223 79.807 45 79.807 z" style="stroke: none; stroke-width: 1; stroke-dasharray: none; stroke-linecap: butt; stroke-linejoin: miter; stroke-miterlimit: 10; fill: rgb(66,117,219); fill-rule: nonzero; opacity: 1;" transform=" matrix(1 0 0 1 0 0) " stroke-linecap="round" />
	<path d="M 79.426 39.861 C 69.687 35.068 57.818 32.249 45 32.249 c -12.818 0 -24.687 2.82 -34.426 7.612 c -0.248 1.677 -0.381 3.393 -0.381 5.139 c 0 1.446 0.099 2.869 0.27 4.269 c 16.41 0.396 29.607 13.736 29.765 30.204 c 1.561 0.214 3.152 0.334 4.771 0.334 s 3.211 -0.12 4.771 -0.334 c 0.158 -16.468 13.355 -29.808 29.765 -30.204 c 0.171 -1.4 0.27 -2.823 0.27 -4.269 C 79.807 43.253 79.674 41.538 79.426 39.861 z M 45 51.296 c -3.477 0 -6.296 -2.819 -6.296 -6.296 s 2.819 -6.296 6.296 -6.296 s 6.296 2.819 6.296 6.296 S 48.477 51.296 45 51.296 z" style="stroke: none; stroke-width: 1; stroke-dasharray: none; stroke-linecap: butt; stroke-linejoin: miter; stroke-miterlimit: 10; fill: rgb(203,196,204); fill-rule: nonzero; opacity: 1;" transform=" matrix(1 0 0 1 0 0) " stroke-linecap="round" />
	<circle cx="45" cy="45" r="6.5" style="stroke: none; stroke-width: 1; stroke-dasharray: none; stroke-linecap: butt; stroke-linejoin: miter; stroke-miterlimit: 10; fill: rgb(66,117,219); fill-rule: nonzero; opacity: 1;" transform="  matrix(1 0 0 1 0 0) "/>
</g>
</svg>